<svg style="display:inline;fill:rgb(75,85,99);stroke:rgb(75,85,99);stroke-width:.55px" xmlns="http://www.w3.org/2000/svg" width="24" height="24"><path d="M22 12c0-5.486-4.514-10-10-10S2 6.514 2 12s4.514 10 10 10 10-4.514 10-10m-2 0c0 4.389-3.611 8-8 8-4.389 0-8-3.611-8-8 0-4.389 3.611-8 8-8 4.389 0 8 3.611 8 8"/><path d="M7.154 9.781 9.62 8v1.096h4.384c1.87 0 3.15 1.873 3.15 3.424 0 1.813-1.195 3.425-2.876 3.425H9.757v-1.233h4.384c1.083 0 1.644-1.303 1.644-2.055 0-.751-.36-2.191-1.644-2.191H9.62v.959L7.154 9.781Z" style="stroke-width:.55px"/></svg>